<?xml version="1.0" standalone="no"?>
<!DOCTYPE svg PUBLIC "-//W3C//DTD SVG 20010904//EN"
 "http://www.w3.org/TR/2001/REC-SVG-20010904/DTD/svg10.dtd">
<svg version="1.0" xmlns="http://www.w3.org/2000/svg"
 width="2623.000000pt" height="509.000000pt" viewBox="0 0 2623.000000 509.000000"
 preserveAspectRatio="xMidYMid meet">

<g transform="translate(0.000000,509.000000) scale(0.100000,-0.100000)"
fill="#000000" stroke="none">
<path d="M4538 4393 c-8 -10 -36 -49 -63 -88 -26 -38 -63 -91 -82 -117 l-33
-46 27 -32 c54 -65 143 -86 218 -51 136 61 150 244 26 322 -52 33 -72 36 -93
12z"/>
<path d="M7659 3556 c-56 -20 -96 -53 -126 -104 l-28 -47 -3 -922 -3 -923 741
0 740 0 0 195 0 195 -510 0 -510 0 0 220 0 220 388 0 c382 0 388 0 432 23 100
50 135 171 77 270 -20 33 -41 52 -79 71 l-52 26 -383 0 -383 0 0 200 0 200
510 0 510 0 0 195 0 195 -642 0 c-499 -1 -651 -4 -679 -14z"/>
<path d="M9282 2903 c4 -719 1 -684 57 -834 102 -272 366 -480 674 -529 123
-20 342 -8 450 24 303 90 514 306 599 611 22 78 22 93 26 738 l3 657 -225 0
-225 0 -3 -637 c-4 -628 -4 -639 -26 -705 -58 -174 -205 -283 -397 -295 -95
-6 -194 14 -267 54 -99 54 -184 178 -208 302 -6 33 -10 292 -10 667 l0 614
-225 0 -226 0 3 -667z"/>
<path d="M12667 3556 c-59 -22 -97 -57 -127 -121 -19 -39 -20 -73 -20 -957 l0
-918 225 0 225 0 0 415 0 414 418 3 418 3 42 28 c60 39 85 94 80 173 -3 52 -9
70 -35 101 -64 80 -47 78 -510 81 l-413 3 0 199 0 200 540 0 540 0 0 195 0
195 -672 0 c-542 -1 -680 -4 -711 -14z"/>
<path d="M19686 3560 c-53 -16 -105 -61 -131 -113 l-25 -51 0 -918 0 -919 588
3 c658 4 632 2 791 79 246 121 380 395 316 644 -32 121 -119 233 -240 310 -33
21 -61 39 -63 40 -1 1 14 19 35 41 58 62 112 152 135 227 17 57 20 86 15 161
-7 115 -27 180 -81 258 -91 134 -239 209 -466 237 -100 13 -832 13 -874 1z
m805 -371 c130 -39 193 -199 128 -325 -52 -102 -131 -123 -446 -124 l-193 0 0
230 0 230 236 0 c149 0 251 -4 275 -11z m155 -816 c99 -53 147 -153 124 -261
-16 -74 -60 -128 -128 -160 l-57 -27 -302 -3 -303 -3 0 241 0 241 313 -3 c298
-3 314 -4 353 -25z"/>
<path d="M24908 3560 c-52 -16 -98 -52 -126 -98 l-27 -47 -3 -927 -2 -928 215
0 215 0 0 280 c0 154 3 280 8 280 4 0 124 -126 267 -279 l260 -279 255 -1 254
-1 -35 38 c-20 20 -176 187 -348 370 l-313 333 18 22 c11 12 152 163 314 337
162 174 306 328 319 343 l24 27 -254 -1 -254 0 -250 -269 c-137 -149 -253
-270 -257 -270 -5 0 -8 206 -8 458 0 420 -2 460 -19 497 -43 95 -153 145 -253
115z"/>
<path d="M3752 3274 c-81 -117 -84 -129 -36 -192 74 -96 234 -94 297 4 l22 35
130 -4 c192 -5 219 -18 363 -166 l113 -116 -559 -5 c-533 -5 -561 -6 -581 -24
-27 -25 -28 -79 -1 -106 20 -20 34 -20 648 -20 l627 -1 60 -69 c33 -39 60 -74
60 -80 0 -5 -27 -41 -60 -79 l-60 -70 -470 0 -470 0 -20 32 c-27 43 -78 75
-131 83 -64 9 -145 -31 -179 -90 -64 -110 -7 -244 118 -278 65 -17 120 1 174
58 l43 44 397 -2 398 -3 -91 -100 c-144 -159 -210 -185 -464 -185 -137 0 -152
-2 -170 -20 -30 -30 -27 -83 7 -110 27 -21 27 -21 732 -18 691 3 707 4 761 24
148 56 172 78 462 405 l203 229 105 0 105 0 29 -36 c104 -131 315 -73 334 91
21 187 -220 289 -334 140 l-26 -35 -107 0 -106 0 -200 227 c-295 334 -307 345
-454 402 l-66 26 -660 3 -660 3 -20 32 c-28 44 -90 77 -145 76 l-45 0 -73
-105z m1058 -165 c57 -13 137 -53 174 -87 15 -15 94 -101 174 -192 80 -91 157
-177 171 -192 l25 -28 -160 0 -159 0 -195 222 c-107 121 -208 236 -223 254
l-28 34 88 0 c48 0 108 -5 133 -11z m607 -35 c82 -41 71 -30 392 -392 l63 -72
-158 0 -159 1 -195 220 c-107 122 -208 237 -224 256 l-30 36 117 -5 c112 -4
120 -6 194 -44z m286 -624 l168 0 -143 -162 c-197 -225 -248 -274 -310 -303
-90 -42 -134 -45 -491 -43 l-339 3 229 259 228 258 245 -6 c135 -3 321 -6 413
-6z"/>
<path d="M14582 3050 c-107 -8 -281 -29 -292 -36 -3 -1 1 -72 10 -156 l15
-153 45 1 c25 1 128 5 230 9 347 15 440 -27 440 -200 l0 -65 -258 0 c-196 0
-271 -4 -315 -15 -181 -47 -281 -161 -315 -359 -12 -73 -13 -104 -4 -163 40
-255 279 -410 575 -373 131 16 215 52 298 127 l39 35 0 -71 0 -71 205 0 205 0
0 523 c0 563 -1 582 -54 685 -110 216 -393 312 -824 282z m446 -958 c-3 -74
-9 -96 -31 -135 -34 -57 -81 -94 -143 -113 -97 -29 -197 -13 -251 41 -30 30
-33 38 -33 93 0 72 12 107 48 146 47 49 73 55 251 56 l163 0 -4 -88z"/>
<path d="M16533 3050 c-67 -10 -166 -57 -222 -106 -24 -21 -62 -65 -83 -98
l-38 -59 0 121 0 122 -210 0 -210 0 0 -735 0 -735 215 0 215 0 0 348 c0 191 5
376 11 412 22 142 108 264 222 316 53 24 76 28 162 30 l100 2 3 191 2 191 -29
0 c-15 0 -41 2 -57 4 -16 2 -52 1 -81 -4z"/>
<path d="M17750 3050 c-121 -15 -247 -77 -337 -166 l-63 -62 0 104 0 104 -210
0 -210 0 0 -735 0 -735 215 0 215 0 0 438 c0 507 -1 503 84 588 132 132 332
107 403 -51 16 -36 18 -82 21 -507 l3 -468 214 0 214 0 3 453 3 452 31 55 c36
64 107 123 170 140 94 27 208 -5 252 -70 50 -73 52 -101 52 -582 l0 -448 215
0 215 0 0 523 c0 563 -3 602 -54 713 -80 175 -212 256 -416 256 -180 1 -356
-70 -487 -195 -24 -23 -44 -39 -46 -36 -2 2 -18 25 -35 50 -70 104 -163 159
-300 179 -73 11 -73 11 -152 0z"/>
<path d="M22065 3053 c-368 -33 -654 -308 -695 -671 -43 -384 199 -733 575
-827 99 -25 284 -23 386 3 264 70 465 270 540 538 32 112 32 286 0 398 -91
323 -359 539 -691 559 -41 2 -93 2 -115 0z m203 -364 c127 -63 192 -196 192
-394 0 -200 -65 -332 -195 -396 -60 -29 -70 -31 -147 -27 -94 5 -146 26 -203
83 -169 170 -148 583 36 711 56 39 106 53 185 54 60 0 81 -5 132 -31z"/>
<path d="M23698 3050 c-255 -31 -474 -186 -587 -415 -60 -121 -75 -188 -75
-340 0 -147 14 -216 69 -330 166 -348 561 -511 943 -390 110 35 195 88 288
180 92 91 150 182 191 300 26 75 28 91 28 240 0 149 -2 165 -28 240 -90 257
-295 442 -551 500 -84 18 -198 25 -278 15z m237 -357 c52 -27 121 -102 146
-159 63 -141 62 -338 -1 -481 -25 -57 -90 -127 -145 -155 -56 -30 -176 -36
-243 -14 -101 34 -185 142 -213 273 -18 89 -7 275 20 346 39 99 109 173 196
205 49 19 193 9 240 -15z"/>
<path d="M11370 2585 l0 -175 415 0 415 0 0 175 0 175 -415 0 -415 0 0 -175z"/>
<path d="M3072 2303 l-53 -76 57 5 c44 4 62 10 76 28 25 30 23 72 -4 98 l-23
21 -53 -76z"/>
<path d="M2758 1856 l-106 -151 26 -12 c34 -15 102 -16 139 -2 62 23 122 109
123 175 0 33 -44 130 -63 137 -7 2 -58 -61 -119 -147z"/>
<path d="M3192 1574 c-85 -28 -160 -74 -217 -131 -22 -22 -132 -145 -245 -272
l-205 -231 -99 0 -98 0 -39 44 c-22 24 -52 49 -68 54 -28 10 -29 9 -129 -133
l-100 -143 32 -30 c38 -37 74 -52 127 -52 57 0 100 21 141 69 l35 41 99 0 100
0 119 -137 c372 -424 395 -445 522 -493 88 -33 226 -40 823 -40 l545 -1 20
-32 c48 -77 171 -99 254 -44 109 72 109 242 -1 314 -83 56 -207 31 -258 -51
l-20 -34 -108 5 c-116 6 -182 25 -251 71 -39 26 -200 198 -201 214 0 4 253 9
561 10 l562 3 20 27 c23 30 18 67 -13 98 -19 19 -36 20 -648 20 l-628 0 -62
71 c-70 80 -71 67 13 162 l50 57 470 0 470 0 22 -35 c50 -76 171 -99 250 -48
69 45 103 128 83 204 -15 55 -43 91 -92 119 -57 32 -150 26 -202 -14 -21 -15
-42 -39 -48 -52 l-11 -24 -399 0 c-219 0 -398 3 -398 8 0 4 43 53 95 109 76
81 110 109 163 135 66 33 67 33 252 38 102 3 192 9 201 13 17 8 39 48 39 71 0
7 -9 25 -21 40 l-20 26 -707 0 -707 -1 -73 -25z m261 -168 c-21 -25 -121 -139
-223 -255 l-185 -210 -159 0 c-149 -1 -158 0 -145 16 47 59 337 383 363 404
76 64 152 87 284 88 l104 1 -39 -44z m520 0 c-21 -25 -121 -139 -223 -255
l-185 -210 -159 0 c-150 -1 -158 0 -144 17 76 91 324 365 356 394 81 73 150
96 290 97 l104 1 -39 -44z m-256 -793 c86 -98 188 -213 226 -256 l70 -78 -379
3 -379 3 -55 26 c-30 14 -70 38 -88 54 -28 23 -328 353 -371 408 -13 16 9 17
402 17 l416 0 158 -177z"/>
</g>
</svg>
