<?xml version="1.0" standalone="no"?>
<!DOCTYPE svg PUBLIC "-//W3C//DTD SVG 20010904//EN"
 "http://www.w3.org/TR/2001/REC-SVG-20010904/DTD/svg10.dtd">
<svg version="1.0" xmlns="http://www.w3.org/2000/svg"
 width="225.000000pt" height="225.000000pt" viewBox="0 0 225.000000 225.000000"
 preserveAspectRatio="xMidYMid meet">

<g transform="translate(0.000000,225.000000) scale(0.100000,-0.100000)"
fill="#000000" stroke="none">
<path d="M1010 2245 c-8 -2 -49 -9 -90 -15 -242 -40 -498 -188 -654 -379 -288
-352 -343 -810 -147 -1216 141 -292 396 -503 717 -592 92 -26 112 -28 289 -28
177 0 197 2 289 28 585 163 933 737 806 1328 -92 428 -427 759 -865 855 -64
14 -309 28 -345 19z m246 -884 c24 -11 70 -51 114 -100 l74 -81 81 0 c53 0 93
5 112 15 72 36 133 -43 77 -100 -20 -19 -68 -19 -88 0 -10 11 -37 15 -93 15
l-78 0 -90 -94 c-69 -72 -99 -96 -130 -105 -24 -6 -137 -11 -275 -11 -191 -1
-239 -3 -254 -15 -62 -47 -141 39 -89 97 20 22 76 24 93 3 9 -10 32 -15 74
-15 58 0 64 2 96 35 l34 35 -191 0 c-206 0 -227 5 -203 49 10 20 19 21 239 21
207 0 229 2 244 18 33 36 5 42 -184 42 -149 0 -182 -3 -207 -17 -25 -14 -34
-15 -56 -5 -15 6 -32 23 -38 37 -10 22 -8 30 9 53 24 32 73 41 93 18 10 -13
39 -16 158 -16 l146 0 -34 35 -34 35 -109 0 c-107 0 -147 9 -147 33 0 35 21
37 320 37 265 0 299 -2 336 -19z"/>
<path d="M1015 1245 c57 -64 58 -65 108 -65 l51 0 -64 65 c-60 60 -68 65 -108
65 l-44 0 57 -65z"/>
<path d="M1205 1245 c55 -62 60 -65 102 -65 l45 0 -42 50 c-55 66 -77 80 -123
80 l-39 0 57 -65z"/>
<path d="M1015 1040 l-69 -70 45 0 c42 0 49 4 114 70 l69 70 -45 0 c-42 0 -49
-4 -114 -70z"/>
<path d="M1200 1037 l-65 -70 49 6 c41 4 55 12 98 53 27 27 54 57 59 67 9 15
5 17 -33 16 -40 -1 -48 -7 -108 -72z"/>
</g>
</svg>
